<svg width="24" height="17" viewBox="0 0 24 17" fill="none" xmlns="http://www.w3.org/2000/svg">
<path d="M4.29605 8.50002L12.788 2.31839C12.858 2.26857 12.9132 2.20943 12.9507 2.14438C12.9881 2.07934 13.007 2.00968 13.0061 1.93943C13.0053 1.86919 12.9848 1.79976 12.9459 1.73517C12.9069 1.67057 12.8503 1.61208 12.7792 1.5631C12.7081 1.51411 12.624 1.47559 12.5318 1.44978C12.4396 1.42396 12.341 1.41136 12.2419 1.41269C12.1427 1.41403 12.0449 1.42928 11.9542 1.45757C11.8634 1.48585 11.7814 1.52661 11.7131 1.57747L2.71305 8.12956C2.57683 8.22873 2.50061 8.36164 2.50061 8.50002C2.50061 8.63839 2.57683 8.7713 2.71305 8.87047L11.7131 15.4226C11.7814 15.4734 11.8634 15.5142 11.9542 15.5425C12.0449 15.5707 12.1427 15.586 12.2419 15.5873C12.341 15.5887 12.4396 15.5761 12.5318 15.5503C12.624 15.5244 12.7081 15.4859 12.7792 15.4369C12.8503 15.3879 12.9069 15.3295 12.9459 15.2649C12.9848 15.2003 13.0053 15.1308 13.0061 15.0606C13.007 14.9904 12.9881 14.9207 12.9507 14.8556C12.9132 14.7906 12.858 14.7315 12.788 14.6816L4.29605 8.50002Z" fill="#401B71"/>
</svg>
