<svg width="24" height="17" viewBox="0 0 24 17" fill="none" xmlns="http://www.w3.org/2000/svg">
<path d="M19.7039 8.49998L11.212 14.6816C11.142 14.7314 11.0868 14.7906 11.0493 14.8556C11.0119 14.9207 10.993 14.9903 10.9939 15.0606C10.9947 15.1308 11.0152 15.2002 11.0541 15.2648C11.0931 15.3294 11.1497 15.3879 11.2208 15.4369C11.2919 15.4859 11.376 15.5244 11.4682 15.5502C11.5604 15.576 11.659 15.5886 11.7581 15.5873C11.8573 15.586 11.9551 15.5707 12.0458 15.5424C12.1366 15.5141 12.2186 15.4734 12.2869 15.4225L21.2869 8.87044C21.4232 8.77127 21.4994 8.63836 21.4994 8.49998C21.4994 8.36161 21.4232 8.2287 21.2869 8.12953L12.2869 1.57744C12.2186 1.52657 12.1366 1.48582 12.0458 1.45754C11.9551 1.42925 11.8573 1.414 11.7581 1.41266C11.659 1.41133 11.5604 1.42393 11.4682 1.44975C11.376 1.47556 11.2919 1.51408 11.2208 1.56306C11.1497 1.61205 11.0931 1.67054 11.0541 1.73513C11.0152 1.79973 10.9947 1.86916 10.9939 1.9394C10.993 2.00964 11.0119 2.0793 11.0493 2.14435C11.0868 2.2094 11.142 2.26854 11.212 2.31836L19.7039 8.49998Z" fill="#401B71"/>
</svg>
