<svg width="106" height="70" viewBox="0 0 106 70" fill="none" xmlns="http://www.w3.org/2000/svg">
<path d="M35.2711 33.1033H61.3867V24.6093L35.2711 24.6093V33.1033Z" fill="#C7C7C7"/>
<path d="M61.3867 24.6108V33.1048H102.095V32.276H101.218V25.4396H102.095V24.6108H61.3867Z" fill="#A6A6A6"/>
<path d="M62.4559 32.2224L101.263 32.2224V25.4916L62.4559 25.4916V32.2224Z" fill="white"/>
<path d="M62.4544 32.2225C72.1281 32.1948 91.5926 32.1607 101.263 32.1493L101.19 32.2225V25.4917C95.3025 25.724 78.2252 25.4624 72.1655 25.5388L62.4625 25.516C62.4901 25.3714 62.4625 32.2533 62.4625 32.2225H62.4544ZM62.4544 32.2225C62.4544 32.1997 62.4316 25.49 62.4316 25.4689C62.4316 25.4478 72.1509 25.4478 72.1574 25.4445L101.263 25.4104H101.344V25.4917L101.336 32.2225V32.2956H101.263C91.591 32.2858 72.1249 32.2517 62.4544 32.2225Z" fill="#DBDBDB"/>
<path d="M87.335 30.734C90.3022 30.773 93.2695 30.8001 96.2368 30.8152L101.263 30.8282V30.6414L96.2368 30.6544C93.2695 30.6652 90.3022 30.6917 87.335 30.734Z" fill="#DBDBDB"/>
<path d="M62.4543 29.1431V29.3154L68.9333 29.3332L78.3243 29.3089C81.2915 29.2948 84.2588 29.2682 87.2261 29.2292C84.2588 29.1902 81.2915 29.1637 78.3243 29.1496L68.9333 29.1252L62.4543 29.1431Z" fill="#DBDBDB"/>
<path d="M62.4543 26.6194V26.8274L71.7169 26.803C74.6864 26.7889 77.6537 26.7624 80.6188 26.7234C77.6515 26.6844 74.6842 26.6578 71.7169 26.6438L62.4543 26.6194Z" fill="#DBDBDB"/>
<path d="M62.4543 30.7517V30.924H64.9422C67.9095 30.911 70.8774 30.8844 73.8457 30.8443C70.8763 30.8075 67.9084 30.781 64.9422 30.7647L62.4543 30.7517Z" fill="#DBDBDB"/>
<path d="M87.0376 27.8512C90.006 27.888 92.9738 27.9146 95.9411 27.9308L101.263 27.9455V27.757L95.9411 27.7716C92.9716 27.7846 90.0038 27.8111 87.0376 27.8512Z" fill="#DBDBDB"/>
<path d="M98.6809 28.5418C96.6388 28.531 94.595 28.5229 92.5497 28.5175H86.0837H79.7835C77.7393 28.5175 75.6955 28.5256 73.6523 28.5418C75.6966 28.5527 77.7403 28.5608 79.7835 28.5662H86.0837H92.5497C94.5939 28.5608 96.6377 28.5527 98.6809 28.5418Z" fill="#DBDBDB"/>
<path d="M96.123 18.2977H70.0073V24.6109H96.123V18.2977Z" fill="#EBEBEB"/>
<path d="M70.0057 24.6109V18.2977H29.2974V18.9136H30.1749V23.995H29.2974V24.6109H70.0057Z" fill="#DBDBDB"/>
<path d="M68.9381 18.9525H30.1311V23.9559H68.9381V18.9525Z" fill="white"/>
<path d="M68.9381 18.9526C59.2644 18.9818 39.7999 19.0159 30.1311 19.0273L30.2058 18.9526V23.956C29.6923 23.7317 49.6443 23.9706 49.5289 23.8991C54.3617 23.8991 64.102 23.9219 68.9332 23.9381C68.9056 24.0454 68.9332 18.9314 68.9332 18.9526H68.9381ZM68.9381 18.9526L68.956 23.956V23.9739H68.9381C64.0972 23.9901 54.3731 24.0112 49.5338 24.0129L30.1311 24.0372H30.0498V23.956V18.9526V18.8778H30.1246C39.7967 18.8892 59.2627 18.9233 68.9316 18.9526H68.9381Z" fill="#DBDBDB"/>
<path d="M44.059 20.0591C41.0918 20.0299 38.1239 20.0098 35.1556 19.999L30.1294 19.9893V20.1274L35.1556 20.1193C38.1196 20.1117 41.0874 20.0916 44.059 20.0591Z" fill="#DBDBDB"/>
<path d="M68.9383 21.2454V21.117L62.461 21.104L53.07 21.1219C50.1027 21.1327 47.1349 21.1522 44.1665 21.1804C47.1338 21.2096 50.1016 21.2297 53.07 21.2405L62.461 21.2584L68.9383 21.2454Z" fill="#DBDBDB"/>
<path d="M68.9383 23.1176V22.9551L59.6757 22.973C56.7073 22.9838 53.7395 23.0038 50.7722 23.0331C53.7395 23.0602 56.7073 23.0797 59.6757 23.0916L68.9383 23.1176Z" fill="#DBDBDB"/>
<path d="M68.9381 20.0462V19.9178H66.4502C63.4829 19.9276 60.5156 19.9476 57.5483 19.978C60.5156 20.0061 63.4829 20.0256 66.4502 20.0365L68.9381 20.0462Z" fill="#DBDBDB"/>
<path d="M44.3564 22.2026C41.3881 22.1755 38.4197 22.1554 35.4513 22.1424L30.1294 22.1327V22.2724L35.4513 22.2611C38.4208 22.2513 41.3891 22.2318 44.3564 22.2026Z" fill="#DBDBDB"/>
<path d="M32.7117 21.6891C34.7559 21.6978 36.7997 21.7038 38.8429 21.707H45.3104H51.609C53.6533 21.707 55.697 21.7011 57.7402 21.6891C55.697 21.6794 53.6533 21.6734 51.609 21.6713H45.3104H38.8429C36.7986 21.6745 34.7549 21.6805 32.7117 21.6891Z" fill="#DBDBDB"/>
<path d="M45.5982 5.59167H9.36035V33.1048H45.5982V5.59167Z" fill="#EBEBEB"/>
<path d="M59.3699 5.59167H45.5979V33.1048H59.3699V5.59167Z" fill="#DBDBDB"/>
<path d="M9.36035 19.2418H45.5982L17.2986 19.9552L9.36035 19.2418Z" fill="#DBDBDB"/>
<path d="M45.5982 29.7557H9.36035L37.6617 30.4691L45.5982 29.7557Z" fill="#DBDBDB"/>
<path d="M9.36035 11.4921H32.3153L11.91 12.0738L9.36035 11.4921Z" fill="#DBDBDB"/>
<path d="M45.5981 25.6736H22.6448L43.0485 26.2553L45.5981 25.6736Z" fill="#DBDBDB"/>
<path d="M48.6401 7.30286H25.6868L46.0921 7.88624L48.6401 7.30286Z" fill="#DBDBDB"/>
<path d="M25.074 9.04639H50.9638L46.6477 9.39577L25.074 9.04639Z" fill="#DBDBDB"/>
<path d="M12.8833 22.214H38.7731L34.457 22.5634L12.8833 22.214Z" fill="#DBDBDB"/>
<path d="M28.8035 14.1311H45.598L48.5994 15.0639L28.8035 14.1311Z" fill="#EBEBEB"/>
<path d="M32.8513 23.4279H49.6459L52.6457 24.3606L32.8513 23.4279Z" fill="#EBEBEB"/>
<path d="M29.1577 27.5245H45.9523L48.9537 28.4573L29.1577 27.5245Z" fill="#EBEBEB"/>
<path d="M4.73364 14.1311H21.5282L24.528 15.0639L4.73364 14.1311Z" fill="#DBDBDB"/>
<path d="M26.2831 8.75549H9.49018L6.48877 9.68663L26.2831 8.75549Z" fill="#EBEBEB"/>
<path d="M27.1915 25.2073H10.3969L7.39551 26.14L27.1915 25.2073Z" fill="#EBEBEB"/>
<path d="M26.2831 26.5934H9.49018L6.48877 27.5245L26.2831 26.5934Z" fill="#DBDBDB"/>
<path d="M45.5979 23.4279H59.0839L62.0853 24.3606L45.5979 23.4279Z" fill="#DBDBDB"/>
<path d="M50.3057 19.2419H60.7643L59.37 18.4797L50.3057 19.2419Z" fill="#DBDBDB"/>
<path d="M1.48853 33.1082C34.7559 33.009 72.0728 33.0074 105.34 33.1082C72.0728 33.2089 34.7559 33.2073 1.48853 33.1082Z" fill="#263238"/>
<path d="M68.4375 56.1135L84.5755 52.1469L105.08 55.0036L88.2448 59.2644L68.4375 56.1135Z" fill="#DBDBDB"/>
<path d="M68.4375 56.1136L84.5707 52.129C84.5707 52.129 105.09 54.9663 105.09 54.9647L105.296 54.9923L105.09 55.0459L88.2448 59.2872C88.2448 59.2872 68.444 56.1119 68.4375 56.1136ZM68.4375 56.1136C68.4375 56.1136 88.2757 59.245 88.24 59.2434L105.07 54.9647V55.0443C105.07 55.0443 84.5495 52.1632 84.5804 52.1648L68.4375 56.1136Z" fill="#DBDBDB"/>
<path d="M87.603 58.1593C88.5959 57.8538 89.6197 57.5694 90.6467 57.2883C91.6737 57.0072 92.717 56.7374 93.7635 56.4758C94.81 56.2142 95.876 55.9493 96.9453 55.7007L98.5573 55.3285C99.1065 55.2115 99.6444 55.088 100.2 54.9775C99.7127 55.1319 99.1959 55.2733 98.6938 55.4228L97.1581 55.8469C96.1344 56.1313 95.0879 56.3994 94.0413 56.6594C92.9948 56.9194 91.9288 57.1859 90.8596 57.4346C89.7903 57.6832 88.7113 57.9318 87.603 58.1593Z" fill="#C7C7C7"/>
<path d="M90.2695 56.5458C91.407 56.1558 92.6356 55.8211 93.8803 55.5025C95.1251 55.184 96.4088 54.8834 97.7771 54.6494C96.6396 55.041 95.4127 55.3742 94.1663 55.6927C92.9199 56.0112 91.6297 56.3053 90.2695 56.5458Z" fill="#C7C7C7"/>
<path d="M82.741 57.5142C83.7339 57.2087 84.7576 56.9243 85.7846 56.6432C86.8116 56.362 87.8549 56.0923 88.9014 55.8307C89.9479 55.569 91.0139 55.3042 92.0816 55.0555L93.6952 54.685C94.2428 54.568 94.7823 54.4445 95.3381 54.3324C94.8506 54.4868 94.3338 54.6298 93.8317 54.7777L92.2961 55.2034C91.2707 55.4862 90.2258 55.7543 89.1793 56.0159C88.1328 56.2775 87.0668 56.5424 85.9975 56.791C84.9282 57.0397 83.8492 57.2867 82.741 57.5142Z" fill="#C7C7C7"/>
<path d="M82.1201 56.7326C83.8085 56.2029 85.5814 55.7316 87.3754 55.2701C89.1694 54.8086 90.9992 54.3796 92.9005 54.001C91.2121 54.5307 89.4392 55.002 87.6468 55.4635C85.8544 55.925 84.0279 56.354 82.1201 56.7326Z" fill="#C7C7C7"/>
<path d="M84.2295 55.2619C85.1606 54.9239 86.1795 54.6428 87.2146 54.3763C88.2498 54.1098 89.3272 53.8693 90.4761 53.6808C89.5449 54.0204 88.526 54.2999 87.4925 54.5664C86.459 54.8329 85.38 55.0734 84.2295 55.2619Z" fill="#C7C7C7"/>
<path d="M1.74829 39.4554L24.141 35.2174L45.7489 41.5306L23.4683 45.9214L1.74829 39.4554Z" fill="#EBEBEB"/>
<path d="M1.74829 39.4555L24.1427 35.1963C24.1427 35.1963 45.7554 41.4932 45.7554 41.4916L45.9179 41.5387L45.7554 41.5712L23.4683 45.9458C23.4601 45.9458 1.75479 39.4603 1.74829 39.4603V39.4555ZM1.74829 39.4555L23.4748 45.9003C23.4211 45.9117 45.7554 41.4867 45.7375 41.4916V41.5696L24.1362 35.232C24.1784 35.2223 1.74179 39.4571 1.74829 39.4571V39.4555Z" fill="#DBDBDB"/>
<path d="M23.1548 44.6344C24.6173 44.2964 26.0912 43.9844 27.5716 43.6708C29.052 43.3571 30.5437 43.0581 32.0371 42.7624C33.5305 42.4666 35.032 42.1774 36.5433 41.9027L38.8102 41.49C39.5723 41.36 40.328 41.2235 41.0966 41.1C40.3686 41.2706 39.6341 41.425 38.8963 41.5875L36.6766 42.0636C35.1978 42.3789 33.7044 42.6762 32.2126 42.972C30.7209 43.2678 29.2177 43.557 27.7065 43.8316C26.1952 44.1063 24.6856 44.3841 23.1548 44.6344Z" fill="#DBDBDB"/>
<path d="M28.8943 42.387C30.4901 41.9759 32.1443 41.6281 33.8035 41.2966C35.4626 40.9651 37.1526 40.6629 38.8881 40.4175C37.2924 40.8286 35.6381 41.1764 33.979 41.5079C32.3198 41.8394 30.6298 42.1416 28.8943 42.387Z" fill="#DBDBDB"/>
<path d="M20.9465 42.8355C22.2222 42.5333 23.5157 42.2554 24.8125 41.9791C26.1092 41.7029 27.4125 41.4413 28.7255 41.1796C30.0385 40.918 31.3531 40.6677 32.6808 40.4289L34.6714 40.0714C35.3426 39.9592 36.0056 39.8406 36.6816 39.735C36.0462 39.8877 35.3994 40.0275 34.7576 40.1737L32.8157 40.5914C31.5156 40.8692 30.2156 41.1293 28.9026 41.3909C27.5896 41.6525 26.2766 41.9011 24.949 42.1416C23.6213 42.3821 22.2953 42.621 20.9465 42.8355Z" fill="#DBDBDB"/>
<path d="M19.9048 41.9238C21.0829 41.641 22.2789 41.381 23.4798 41.1243C24.6807 40.8675 25.8897 40.6238 27.102 40.3833C28.3143 40.1428 29.5395 39.9088 30.7648 39.6894L32.6092 39.3644C33.2316 39.262 33.8474 39.1531 34.4747 39.0573C33.8881 39.2019 33.2884 39.3303 32.6969 39.4684L30.8997 39.8568C29.702 40.1151 28.4898 40.3573 27.2775 40.5978C26.0652 40.8383 24.84 41.0706 23.6147 41.2916C22.3894 41.5127 21.156 41.7207 19.9048 41.9238Z" fill="#DBDBDB"/>
<path d="M14.3262 41.9059C15.7887 41.5679 17.2626 41.2559 18.743 40.9407C20.2234 40.6254 21.7151 40.3296 23.2085 40.0323C24.7019 39.7349 26.2034 39.4489 27.7131 39.1726L29.9881 38.7599C30.7502 38.6315 31.5059 38.4934 32.2745 38.3699C31.5465 38.5421 30.812 38.6949 30.0742 38.8574L27.8561 39.3286C26.3773 39.6423 24.8839 39.9396 23.3921 40.237C21.9004 40.5344 20.3972 40.8204 18.886 41.0967C17.3747 41.3729 15.8569 41.654 14.3262 41.9059Z" fill="#DBDBDB"/>
<path d="M14.1409 40.8254C15.4311 40.5199 16.7409 40.2387 18.0523 39.9592C19.3637 39.6797 20.6881 39.4148 22.0125 39.1467C23.3368 38.8786 24.6694 38.6283 26.0116 38.3862L28.0266 38.0238C28.7043 37.9101 29.377 37.7898 30.0595 37.6842C29.4095 37.8386 28.7595 37.9783 28.1095 38.1278L26.1449 38.5487C24.8351 38.8298 23.5107 39.0931 22.1863 39.3612C20.8619 39.6294 19.5278 39.8796 18.1855 40.1217C16.8433 40.3639 15.5043 40.6076 14.1409 40.8254Z" fill="#DBDBDB"/>
<path d="M9.91113 40.541C11.3736 40.203 12.8475 39.891 14.3296 39.5774C15.8116 39.2637 17.3017 38.9582 18.8016 38.669C20.3015 38.3797 21.7965 38.084 23.3078 37.8094L25.5747 37.3966C26.3368 37.2666 27.0941 37.1301 27.8611 37.0066C27.1331 37.1772 26.3986 37.3316 25.6624 37.4941L23.4443 37.967C21.9655 38.2806 20.4721 38.578 18.9787 38.8737C17.4853 39.1695 15.9838 39.4587 14.4726 39.7334C12.9613 40.008 11.4435 40.2908 9.91113 40.541Z" fill="#DBDBDB"/>
<path d="M15.0413 38.4139C16.7394 37.9816 18.4912 37.6144 20.2559 37.2634C22.0207 36.9124 23.8082 36.589 25.6461 36.3241C23.948 36.7564 22.1978 37.122 20.4314 37.4746C18.665 37.8272 16.8792 38.1457 15.0413 38.4139Z" fill="#DBDBDB"/>
<path d="M34.5608 61.091L63.0181 55.7057L90.4744 63.7284L62.1617 69.3071L34.5608 61.091Z" fill="#EBEBEB"/>
<path d="M34.564 61.091L63.0181 55.6846C63.0181 55.6846 90.4809 63.691 90.4809 63.6894L90.6434 63.7365L90.4809 63.769L62.1617 69.3282C62.1536 69.3298 34.564 61.091 34.564 61.091ZM34.564 61.091L62.1715 69.2876C62.1211 69.2876 90.4825 63.6862 90.4695 63.6894V63.7674L63.0116 55.7252C63.0538 55.7122 34.5543 61.0991 34.5608 61.0878L34.564 61.091Z" fill="#DBDBDB"/>
<path d="M61.762 67.6723C63.6161 67.2433 65.4995 66.842 67.3764 66.4471C69.2533 66.0522 71.1529 65.6703 73.0493 65.2933C74.9457 64.9163 76.8551 64.5507 78.7759 64.1997L81.657 63.6764C82.6321 63.5139 83.5859 63.3368 84.5626 63.1808C83.6379 63.3985 82.6987 63.5984 81.7675 63.808L78.9481 64.4061C77.0696 64.8058 75.1716 65.1828 73.2752 65.5598C71.3788 65.9368 69.4694 66.3024 67.5487 66.6518C65.6279 67.0012 63.7087 67.3538 61.762 67.6723Z" fill="#DBDBDB"/>
<path d="M69.0569 64.8155C71.0849 64.2939 73.1812 63.8519 75.2937 63.431C77.4062 63.0101 79.5512 62.6185 81.758 62.313C79.73 62.8362 77.6321 63.2782 75.5196 63.6991C73.4071 64.12 71.262 64.5035 69.0569 64.8155Z" fill="#DBDBDB"/>
<path d="M58.9573 65.3858C60.5823 65.0023 62.2219 64.6481 63.8697 64.2987C65.5175 63.9493 67.1799 63.6145 68.8423 63.283C70.5047 62.9515 72.18 62.633 73.8668 62.3275L76.3986 61.8725C77.2501 61.7312 78.0935 61.58 78.9531 61.4468C78.1406 61.6418 77.3281 61.8189 76.5156 62.0042L74.0488 62.5339C72.4027 62.8865 70.7387 63.218 69.0763 63.5495C67.4139 63.881 65.7369 64.1996 64.0501 64.5034C62.3633 64.8073 60.67 65.1209 58.9573 65.3858Z" fill="#DBDBDB"/>
<path d="M57.6394 64.2273C59.136 63.8681 60.6571 63.5383 62.1895 63.2133C63.7218 62.8883 65.251 62.5763 66.7915 62.2691C68.332 61.962 69.879 61.6679 71.4456 61.3884L73.7921 60.9691C74.5818 60.8407 75.3635 60.701 76.1613 60.5791C75.4155 60.7627 74.655 60.9269 73.901 61.1007L71.6178 61.5882C70.0968 61.9132 68.5563 62.2236 67.0158 62.5307C65.4752 62.8379 63.9282 63.132 62.3617 63.4115C60.7952 63.691 59.2222 63.9835 57.6394 64.2273Z" fill="#DBDBDB"/>
<path d="M50.543 64.2045C52.3971 63.7754 54.2805 63.3741 56.1574 62.9792C58.0343 62.5843 59.9339 62.2024 61.8303 61.8254C63.7267 61.4484 65.6361 61.0828 67.552 60.7334L70.4332 60.2102C71.4082 60.0477 72.3621 59.8705 73.3387 59.7227C72.4141 59.9404 71.4748 60.1403 70.5437 60.3499L67.7243 60.9479C65.8458 61.3477 63.9477 61.7247 62.0513 62.1017C60.1549 62.4787 58.2456 62.8443 56.3248 63.1937C54.404 63.5431 52.4897 63.8859 50.543 64.2045Z" fill="#DBDBDB"/>
<path d="M50.3088 62.8313C51.9485 62.4445 53.6125 62.0854 55.2798 61.7328C56.947 61.3801 58.6273 61.0405 60.3173 60.7041C62.0073 60.3678 63.6941 60.046 65.4004 59.7389L67.9533 59.2709C68.8162 59.1279 69.6693 58.9751 70.5387 58.8386C69.7262 59.0353 68.8893 59.214 68.0638 59.4025L65.5678 59.9388C63.9021 60.2946 62.2186 60.631 60.5302 60.9658C58.8418 61.3005 57.1534 61.6158 55.4471 61.931C53.7409 62.2463 52.0411 62.555 50.3088 62.8313Z" fill="#DBDBDB"/>
<path d="M44.9333 62.4706C46.7875 62.0415 48.6709 61.6402 50.5478 61.2453C52.4247 60.8504 54.3243 60.4685 56.2207 60.0915C58.1171 59.7145 60.0265 59.3489 61.9473 58.9979L64.8284 58.4746C65.8034 58.3121 66.7573 58.135 67.7323 57.979C66.8093 58.1968 65.8701 58.3966 64.9389 58.6063L62.1195 59.2043C60.241 59.604 58.343 59.981 56.4466 60.358C54.5502 60.735 52.6408 61.1007 50.72 61.45C48.7993 61.7994 46.8801 62.1521 44.9333 62.4706Z" fill="#DBDBDB"/>
<path d="M51.4529 59.7665C53.6109 59.2189 55.8404 58.7525 58.0781 58.304C60.3157 57.8555 62.594 57.446 64.9291 57.1096C62.7711 57.6589 60.5416 58.1253 58.3023 58.5721C56.0631 59.019 53.788 59.4334 51.4529 59.7665Z" fill="#DBDBDB"/>
<path d="M104.099 47.4423L51.4124 61.9992V51.5065L104.099 36.9496C106.89 42.0976 104.099 47.4423 104.099 47.4423Z" fill="#37474F"/>
<path d="M0 54.7209L51.4123 61.9993V59.3392L4.70118 53.6256L0 53.9084V54.7209Z" fill="#455A64"/>
<path d="M51.4139 51.5554C53.3347 56.1785 51.4139 61.9993 51.4139 61.9993L2.47974 54.2708V45.2015L51.4139 51.5554Z" fill="#455A64"/>
<path d="M50.2032 51.3993C52.0736 56.0046 50.3576 60.9642 50.3576 60.9642L2.47974 54.2333V45.1982L50.2032 51.3993Z" fill="white"/>
<path d="M50.2032 51.3993C50.2666 51.578 50.4502 52.0818 50.5136 52.2589C50.8937 53.524 51.0865 54.838 51.0856 56.159C51.0927 57.7885 50.8555 59.4098 50.382 60.969C50.4047 61.0405 2.48456 54.2886 2.46831 54.3065L2.39844 54.2967V54.2333V45.1982V45.1154L2.47969 45.1267L26.3512 48.2516L50.1934 51.396L50.2032 51.3993ZM50.2032 51.3993C38.4641 49.8214 13.8987 46.9094 2.55119 45.2015L2.55931 54.2366L2.48944 54.1553C2.48944 54.1732 50.4665 60.9138 50.3299 60.956C50.5726 60.1822 50.7541 59.3906 50.8727 58.5884C51.2351 56.1882 51.0953 53.6694 50.2016 51.3993H50.2032Z" fill="#DBDBDB"/>
<path d="M25.646 49.1146C33.6346 50.0896 42.5819 51.2921 50.5429 52.4735C42.5543 51.4985 33.607 50.2944 25.646 49.1146Z" fill="#DBDBDB"/>
<path d="M2.47974 48.5068C9.32756 49.3193 16.9245 50.3496 23.748 51.375C16.8953 50.5625 9.30156 49.5355 2.47974 48.5068Z" fill="#DBDBDB"/>
<path d="M3.62061 49.3989C15.2574 50.8614 28.2949 52.6197 39.9007 54.2919C28.2656 52.8293 15.2281 51.0711 3.62061 49.3989Z" fill="#DBDBDB"/>
<path d="M9.91113 52.4686C21.9818 53.962 35.5068 55.756 47.5482 57.4591C35.4792 55.9673 21.9541 54.1716 9.91113 52.4686Z" fill="#DBDBDB"/>
<path d="M18.0249 54.3796C28.5518 55.6959 40.3575 57.2852 50.86 58.8094C40.3283 57.4964 28.529 55.9039 18.0249 54.3796Z" fill="#DBDBDB"/>
<path d="M8.56396 54.3617C22.0516 56.081 37.1643 58.1187 50.6178 60.0346C37.1301 58.317 22.0175 56.2776 8.56396 54.3617Z" fill="#DBDBDB"/>
<path d="M51.4139 51.5553L104.099 36.9496L50.8598 34.5381L0 43.9697V44.8797L51.4139 51.5553Z" fill="#455A64"/>
<path d="M52.7644 49.9497C59.3002 47.9688 66.0132 46.1797 72.7196 44.6343C66.1854 46.6168 59.4725 48.4027 52.7644 49.9497Z" fill="#37474F"/>
<path d="M40.125 49.0204C41.945 49.1146 43.8252 49.3259 45.6322 49.5453C47.4392 49.7646 49.3047 50.0328 51.076 50.3984C49.256 50.3058 47.3758 50.0929 45.5704 49.8735C43.765 49.6541 41.8979 49.3779 40.125 49.0204Z" fill="#37474F"/>
<path d="M1.41357 44.147C13.7881 45.4762 26.2617 47.0444 38.5533 48.8205C26.1691 47.4945 13.6971 45.9231 1.41357 44.147Z" fill="#37474F"/>
<path d="M87.2146 42.8681C92.3562 41.2528 97.56 39.7811 102.826 38.4529C97.6868 40.0681 92.4829 41.5399 87.2146 42.8681Z" fill="#455A64"/>
<path d="M59.8966 34.8648C59.2141 34.9981 56.3963 35.1492 56.3395 34.5398C56.2517 33.6233 62.9907 27.1232 65.4087 25.9012C67.7081 24.7377 75.1165 22.1994 76.9463 22.1442L76.9626 27.9812C75.9274 28.2445 67.6805 27.4401 65.9482 28.3599C65.1958 28.7596 64.1997 30.4171 62.1717 33.0497C61.4583 33.9775 60.2996 34.7852 59.8966 34.8648Z" fill="#7E57C2"/>
<g opacity="0.3">
<path d="M59.8966 34.8648C59.2141 34.9981 56.3963 35.1492 56.3395 34.5398C56.2517 33.6233 62.9907 27.1232 65.4087 25.9012C67.7081 24.7377 75.1165 22.1994 76.9463 22.1442L76.9626 27.9812C75.9274 28.2445 67.6805 27.4401 65.9482 28.3599C65.1958 28.7596 64.1997 30.4171 62.1717 33.0497C61.4583 33.9775 60.2996 34.7852 59.8966 34.8648Z" fill="black"/>
</g>
<path d="M58.4975 34.8648C57.8134 34.9981 55.1938 35.1492 55.1353 34.5398C55.0492 33.6233 61.7882 27.1232 64.2046 25.9012C66.504 24.7377 75.1166 22.1994 76.9463 22.1442L76.9626 27.9812C75.9274 28.2445 66.478 27.4401 64.7457 28.3599C63.9933 28.7596 62.7957 30.4171 60.7709 33.0497C60.0591 33.9775 58.9005 34.7852 58.4975 34.8648Z" fill="#7E57C2"/>
<g opacity="0.2">
<path d="M58.4975 34.8648C57.8134 34.9981 55.1938 35.1492 55.1353 34.5398C55.0492 33.6233 61.7882 27.1232 64.2046 25.9012C66.504 24.7377 75.1166 22.1994 76.9463 22.1442L76.9626 27.9812C75.9274 28.2445 66.478 27.4401 64.7457 28.3599C63.9933 28.7596 62.7957 30.4171 60.7709 33.0497C60.0591 33.9775 58.9005 34.7852 58.4975 34.8648Z" fill="black"/>
</g>
<path d="M85.0682 42.6096C85.6565 42.8566 87.9705 42.9818 88.367 42.4829C88.965 41.7273 81.6687 31.4458 77.3819 29.5803C73.373 27.8496 16.8142 16.8645 15.6475 16.6825L15.6052 21.2455C23.4849 22.4773 73.4835 30.4431 76.5759 31.7903C78.5925 32.6662 81.1617 37.2877 83.0077 40.4809C83.7536 41.7776 84.3857 42.3236 85.0682 42.6096Z" fill="#7E57C2"/>
<g opacity="0.2">
<path d="M85.0682 42.6096C85.6565 42.8566 87.9705 42.9818 88.367 42.4829C88.965 41.7273 81.6687 31.4458 77.3819 29.5803C73.373 27.8496 16.8142 16.8645 15.6475 16.6825L15.6052 21.2455C23.4849 22.4773 73.4835 30.4431 76.5759 31.7903C78.5925 32.6662 81.1617 37.2877 83.0077 40.4809C83.7536 41.7776 84.3857 42.3236 85.0682 42.6096Z" fill="black"/>
</g>
<path d="M84.0914 42.6096C84.6797 42.8566 86.9937 42.9818 87.3902 42.4829C87.9882 41.7273 80.7455 31.1971 76.4603 29.3316C72.4498 27.601 16.8141 16.858 15.6473 16.6825L14.6284 21.2455C22.5081 22.4773 72.5067 30.4431 75.5991 31.7903C77.6157 32.6662 80.1849 37.2877 82.0309 40.4809C82.7768 41.7776 83.4089 42.3236 84.0914 42.6096Z" fill="#7E57C2"/>
<g opacity="0.1">
<path d="M84.0914 42.6096C84.6797 42.8566 86.9937 42.9818 87.3902 42.4829C87.9882 41.7273 80.7455 31.1971 76.4603 29.3316C72.4498 27.601 16.8141 16.858 15.6473 16.6825L14.6284 21.2455C22.5081 22.4773 72.5067 30.4431 75.5991 31.7903C77.6157 32.6662 80.1849 37.2877 82.0309 40.4809C82.7768 41.7776 83.4089 42.3236 84.0914 42.6096Z" fill="black"/>
</g>
<g opacity="0.1">
<path d="M26.6017 18.7885L22.3214 22.4692C18.761 21.9004 16.0294 21.4698 14.6318 21.2504L15.6491 16.6825C15.966 16.7312 20.3324 17.5681 26.6017 18.7885Z" fill="black"/>
<path d="M37.5477 24.9327L34.8892 24.4956L32.4192 19.926L36.3339 20.6995L37.5477 24.9327Z" fill="black"/>
<path d="M52.5207 23.9527L49.5144 26.9151L46.8445 26.4666L48.9798 23.2312C50.166 23.4706 51.3463 23.7111 52.5207 23.9527Z" fill="black"/>
<path d="M76.0931 29.1967L75.058 31.6163C74.5607 31.4766 73.8116 31.3011 72.8479 31.098L72.1021 28.1486C73.9773 28.5906 75.3618 28.9497 76.0931 29.1967Z" fill="black"/>
</g>
<path d="M26.397 45C20.5047 44.7156 16.0213 38.0417 16.4015 30.1246C16.5819 26.3464 17.8315 22.8331 19.9181 20.2315C22.0745 17.5437 24.8581 16.1332 27.7832 16.2811C30.7082 16.4289 33.344 18.0865 35.2306 20.9709C37.0588 23.7561 37.9655 27.3751 37.7819 31.1565C37.4211 38.6478 32.8288 44.6116 27.3412 44.9902C27.0269 45.0114 26.7117 45.0146 26.397 45ZM21.418 21.4372C19.5833 23.7204 18.4767 26.8404 18.3142 30.2188C17.9892 37.0764 21.6503 42.8468 26.4864 43.0792C31.3224 43.3116 35.5264 37.9214 35.8595 31.0541C36.022 27.6757 35.2241 24.4663 33.6202 22.0141C32.0748 19.6595 29.9672 18.3026 27.6857 18.1937C27.4427 18.1791 27.199 18.1791 26.956 18.1937C24.9345 18.3481 22.991 19.4742 21.418 21.434V21.4372ZM16.4097 31.1305C16.1123 25.3389 16.7607 24.4322 16.4974 22.7243C16.3723 21.9117 15.2283 21.1317 15.2283 21.1317L16.2277 16.9733C16.2277 16.9733 19.3428 17.2772 20.0611 17.2886C21.3383 17.3064 24.096 16.3737 26.4978 16.3136C26.4978 16.3136 21.2766 18.6601 19.5979 21.6517C17.9193 24.6434 16.4097 31.1272 16.4097 31.1272V31.1305Z" fill="#7E57C2"/>
<path opacity="0.1" d="M26.397 45C20.5047 44.7156 16.0213 38.0417 16.4015 30.1246C16.5819 26.3464 17.8315 22.8331 19.9181 20.2315C22.0745 17.5437 24.8581 16.1332 27.7832 16.2811C30.7082 16.4289 33.344 18.0865 35.2306 20.9709C37.0588 23.7561 37.9655 27.3751 37.7819 31.1565C37.4211 38.6478 32.8288 44.6116 27.3412 44.9902C27.0269 45.0114 26.7117 45.0146 26.397 45ZM21.418 21.4372C19.5833 23.7204 18.4767 26.8404 18.3142 30.2188C17.9892 37.0764 21.6503 42.8468 26.4864 43.0792C31.3224 43.3116 35.5264 37.9214 35.8595 31.0541C36.022 27.6757 35.2241 24.4663 33.6202 22.0141C32.0748 19.6595 29.9672 18.3026 27.6857 18.1937C27.4427 18.1791 27.199 18.1791 26.956 18.1937C24.9345 18.3481 22.991 19.4742 21.418 21.434V21.4372ZM16.4097 31.1305C16.1123 25.3389 16.7607 24.4322 16.4974 22.7243C16.3723 21.9117 15.2283 21.1317 15.2283 21.1317L16.2277 16.9733C16.2277 16.9733 19.3428 17.2772 20.0611 17.2886C21.3383 17.3064 24.096 16.3737 26.4978 16.3136C26.4978 16.3136 21.2766 18.6601 19.5979 21.6517C17.9193 24.6434 16.4097 31.1272 16.4097 31.1272V31.1305Z" fill="black"/>
<path d="M25.5957 45C19.7017 44.7156 15.2183 38.0417 15.5986 30.1246C15.7789 26.3464 17.0286 22.8331 19.1151 20.2315C21.2715 17.5437 24.0551 16.1332 26.9802 16.2811C29.9052 16.4289 32.541 18.0865 34.4276 20.9709C36.2558 23.7561 37.1625 27.3751 36.9789 31.1565C36.6181 38.6478 32.0259 44.6116 26.5382 44.9902C26.2244 45.0114 25.9098 45.0146 25.5957 45ZM20.615 21.4372C18.7803 23.7236 17.6802 26.8437 17.5177 30.2221C17.1927 37.0797 20.8522 42.8501 25.6883 43.0825C30.5243 43.3148 34.7283 37.9247 35.0614 31.0573C35.2239 27.6789 34.426 24.4695 32.8221 22.0174C31.2783 19.6627 29.1691 18.3058 26.8875 18.197C26.6446 18.1823 26.4009 18.1823 26.1579 18.197C24.1331 18.3481 22.188 19.4742 20.615 21.434V21.4372ZM15.6067 31.1305C15.3093 25.3389 15.9577 24.4322 15.6944 22.7243C15.5693 21.9117 14.4253 21.1317 14.4253 21.1317L15.4702 16.4972C15.4702 16.4972 18.6373 17.0578 19.354 17.0676C20.6312 17.0871 23.293 16.3737 25.6915 16.3201C25.6915 16.3201 20.4704 18.6666 18.7917 21.6582C17.1131 24.6499 15.6067 31.1272 15.6067 31.1272V31.1305Z" fill="#7E57C2"/>
<path d="M18.5936 18.6179C18.5562 18.9055 18.0216 19.0712 17.3992 18.9884C16.7768 18.9055 16.3055 18.6049 16.3445 18.3189C16.3835 18.0328 16.9165 17.8655 17.5389 17.9483C18.1613 18.0312 18.6391 18.3302 18.5936 18.6179Z" fill="#A6A6A6"/>
<path d="M16.6177 18.3287C16.6681 18.1905 17.2092 18.0345 17.8007 18.1938Z" fill="white"/>
<path d="M15.2264 21.1691C16.3509 21.7996 16.8319 22.7291 16.7052 24.0161C16.58 26.2489 16.3282 28.4605 16.3249 30.6933C16.3096 31.8076 16.3813 32.9214 16.5394 34.0246C15.8195 31.3043 16.034 28.4361 16.2875 25.6655L16.45 24.0015C16.6255 22.7567 16.2323 21.9052 15.2231 21.1691H15.2264Z" fill="white"/>
<path d="M21.0991 17.3357C22.6591 16.8905 24.2793 16.5232 25.9108 16.5964C24.2858 16.741 22.7079 17.105 21.0991 17.3357Z" fill="white"/>
<path opacity="0.1" d="M21.0976 21.5527C19.3247 23.8277 18.262 26.9282 18.1027 30.2888C17.7858 37.1138 21.3284 42.8469 26.0019 43.0793C30.6755 43.3117 34.7396 37.9491 35.0614 31.1273C35.2239 27.7684 34.4488 24.5752 32.8985 22.1377C31.4051 19.7944 29.3673 18.4457 27.1606 18.3368C26.9257 18.3221 26.6902 18.3221 26.4553 18.3368C24.4972 18.483 22.6186 19.601 21.0976 21.5527Z" fill="#EBEBEB"/>
<g opacity="0.2">
<path d="M30.066 19.2532L18.0896 31.5757C18.0782 31.1499 18.0896 30.7225 18.1042 30.287C18.1609 29.0157 18.356 27.7542 18.686 26.5251L26.6486 18.3367C26.8111 18.3367 26.9914 18.3367 27.1637 18.3367C28.1924 18.3952 29.1902 18.7103 30.066 19.2532Z" fill="white"/>
<path d="M34.239 24.9831L20.2915 39.3337C20.0349 38.9358 19.8027 38.5229 19.5959 38.097L33.6865 23.5986C33.8967 24.0493 34.0812 24.5116 34.239 24.9831Z" fill="white"/>
<path d="M34.7818 33.5566C34.6115 34.4824 34.3625 35.3919 34.0375 36.2753L27.5456 42.9541C27.0387 43.0635 26.5197 43.1056 26.0018 43.0792C25.8556 43.0711 25.7093 43.0597 25.5647 43.0402L34.7818 33.5566Z" fill="white"/>
<path d="M34.808 27.1914L21.5072 40.8757C21.4438 40.8139 21.3837 40.7489 21.3252 40.6823L34.7462 26.8696C34.7706 26.9769 34.7885 27.0858 34.808 27.1914Z" fill="white"/>
</g>
<path d="M44.7563 31.5108L46.0563 30.0986C43.9665 28.1649 39.0476 25.4641 35.3621 29.0472L36.7011 30.4253C40.0031 27.2094 44.5629 31.3353 44.7563 31.5108Z" fill="#7E57C2"/>
<path d="M57.1943 46.7582C53.4428 46.0695 50.118 43.9199 47.9502 40.7816C45.7824 37.6434 44.9487 33.773 45.6323 30.0205C46.1444 27.2224 47.4746 24.639 49.4548 22.5969C51.4351 20.5548 53.9764 19.1457 56.7574 18.5478C59.5384 17.95 62.4343 18.1902 65.0788 19.238C67.7233 20.2859 69.9978 22.0944 71.6145 24.4349C73.2312 26.7753 74.1177 29.5426 74.1617 32.3869C74.2058 35.2311 73.4054 38.0245 71.862 40.4139C70.3185 42.8033 68.1012 44.6814 65.4904 45.8106C62.8796 46.9399 59.9925 47.2697 57.1943 46.7582ZM47.5238 30.3715C47.0609 32.9218 47.4061 35.5529 48.5111 37.8975C49.6161 40.242 51.4258 42.1829 53.6874 43.4491C55.949 44.7153 58.5495 45.2435 61.1259 44.9599C63.7023 44.6764 66.1257 43.5953 68.0578 41.8676C69.99 40.1399 71.3342 37.8519 71.9029 35.3232C72.4716 32.7944 72.2363 30.1512 71.2299 27.7627C70.2235 25.3741 68.4962 23.3595 66.2893 22.0003C64.0823 20.6411 61.506 20.0051 58.9201 20.1811C56.159 20.3741 53.5405 21.4802 51.4772 23.3252C49.414 25.1701 48.0231 27.6491 47.5238 30.3715Z" fill="#7E57C2"/>
<path d="M72.5895 26.465C71.5999 23.1792 65.8359 19.5668 65.8359 19.5668C68.1695 20.1404 70.7435 21.3072 71.9948 21.5672C72.6968 21.7118 76.9543 22.1473 76.9543 22.1473L76.9706 27.9844C76.9706 27.9844 75.8005 28.0494 75.508 28.8147C74.8808 30.4251 75.1977 30.8151 73.6506 36.402C73.636 36.402 73.5645 29.7491 72.5895 26.465Z" fill="#7E57C2"/>
<g opacity="0.1">
<path d="M57.1943 46.7582C53.4428 46.0695 50.118 43.9199 47.9502 40.7816C45.7824 37.6434 44.9487 33.773 45.6323 30.0205C46.1444 27.2224 47.4746 24.639 49.4548 22.5969C51.4351 20.5548 53.9764 19.1457 56.7574 18.5478C59.5384 17.95 62.4343 18.1902 65.0788 19.238C67.7233 20.2859 69.9978 22.0944 71.6145 24.4349C73.2312 26.7753 74.1177 29.5426 74.1617 32.3869C74.2058 35.2311 73.4054 38.0245 71.862 40.4139C70.3185 42.8033 68.1012 44.6814 65.4904 45.8106C62.8796 46.9399 59.9925 47.2697 57.1943 46.7582ZM47.5238 30.3715C47.0609 32.9218 47.4061 35.5529 48.5111 37.8975C49.6161 40.242 51.4258 42.1829 53.6874 43.4491C55.949 44.7153 58.5495 45.2435 61.1259 44.9599C63.7023 44.6764 66.1257 43.5953 68.0578 41.8676C69.99 40.1399 71.3342 37.8519 71.9029 35.3232C72.4716 32.7944 72.2363 30.1512 71.2299 27.7627C70.2235 25.3741 68.4962 23.3595 66.2893 22.0003C64.0823 20.6411 61.506 20.0051 58.9201 20.1811C56.159 20.3741 53.5405 21.4802 51.4772 23.3252C49.414 25.1701 48.0231 27.6491 47.5238 30.3715Z" fill="black"/>
<path d="M72.5898 26.465C71.6001 23.1792 65.8362 19.5668 65.8362 19.5668C68.1697 20.1404 70.7437 21.3072 71.995 21.5672C72.697 21.7118 76.9545 22.1473 76.9545 22.1473L76.9708 27.9844C76.9708 27.9844 75.8008 28.0494 75.5083 28.8147C74.881 30.4251 75.1979 30.8151 73.6509 36.402C73.6363 36.402 73.5648 29.7491 72.5898 26.465Z" fill="black"/>
</g>
<path d="M55.9154 46.5487C52.1669 45.8597 48.8446 43.7123 46.6772 40.5774C44.5097 37.4424 43.674 33.5758 44.3534 29.8256C44.8621 27.0244 46.1904 24.437 48.1701 22.391C50.1498 20.3449 52.692 18.9321 55.475 18.3313C58.2579 17.7306 61.1565 17.9689 63.804 19.016C66.4515 20.0632 68.7288 21.8722 70.3478 24.2141C71.9668 26.5561 72.8547 29.3256 72.8991 32.1723C72.9435 35.019 72.1425 37.8149 70.5974 40.2062C69.0522 42.5975 66.8325 44.4767 64.219 45.606C61.6055 46.7353 58.7157 47.0639 55.9154 46.5503V46.5487ZM46.2449 30.1701C45.78 32.7224 46.124 35.3561 47.2289 37.7034C48.3337 40.0506 50.1443 41.994 52.4076 43.262C54.6708 44.5301 57.2737 45.0594 59.8524 44.776C62.4311 44.4927 64.8569 43.4108 66.7908 41.6815C68.7247 39.9523 70.0701 37.6621 70.6389 35.1309C71.2077 32.5998 70.9716 29.9542 69.9635 27.5638C68.9555 25.1734 67.2258 23.1576 65.0163 21.7982C62.8067 20.4387 60.2277 19.8035 57.6395 19.9813C54.8789 20.1745 52.261 21.2806 50.1981 23.1252C48.1352 24.9698 46.7444 27.4482 46.2449 30.1701Z" fill="#7E57C2"/>
<path d="M71.3026 26.2634C70.313 22.9777 64.5491 19.3652 64.5491 19.3652C66.8826 19.9389 69.4566 21.1056 70.7079 21.3656C71.4099 21.5103 75.6674 21.9458 75.6674 21.9458L75.6837 27.2904C75.6837 27.2904 74.5137 27.6447 74.2212 28.4085C73.5923 30.0188 73.9092 30.6136 72.3622 36.2085C72.3573 36.1955 72.2923 29.5476 71.3026 26.2634Z" fill="#7E57C2"/>
<path d="M73.8442 24.346C73.8052 24.6336 73.2706 24.7994 72.6498 24.7165C72.0291 24.6336 71.5546 24.3346 71.5936 24.047C71.6326 23.7594 72.1672 23.5936 72.7879 23.6765C73.4087 23.7594 73.8897 24.06 73.8442 24.346Z" fill="#A6A6A6"/>
<path d="M71.8665 24.0584C71.9168 23.9203 72.458 23.7626 73.0495 23.9235Z" fill="white"/>
<path d="M51.9241 20.4119C53.1563 19.4735 54.6653 18.971 56.2141 18.9835C54.7516 19.4125 53.3443 19.8773 51.9241 20.4119Z" fill="white"/>
<path d="M45.8386 27.5831C46.5666 24.6759 48.9977 21.8711 51.6741 20.563C49.1683 22.3505 47.0671 24.749 45.8386 27.5831Z" fill="white"/>
<path opacity="0.1" d="M46.838 30.1701C45.6354 36.9253 50.0197 43.4254 56.6141 44.6588C63.2084 45.8922 69.5492 41.3974 70.7517 34.6438C71.9542 27.8902 67.5683 21.3869 60.974 20.1552C59.9824 19.9685 58.9709 19.9101 57.9645 19.9813C52.5483 20.3632 47.8552 24.4582 46.838 30.1701Z" fill="#EBEBEB"/>
<g opacity="0.2">
<path d="M70.9387 32.9815L59.354 44.8441C58.4364 44.8864 57.517 44.8221 56.6142 44.6524C56.2234 44.5799 55.8367 44.4871 55.4556 44.3745L70.4772 28.9872C70.8443 30.2852 71.0001 31.6339 70.9387 32.9815Z" fill="white"/>
<path d="M60.3533 20.056L46.7406 34.0051C46.5795 32.7292 46.6123 31.4362 46.8381 30.1701C46.8933 29.8548 46.9632 29.5412 47.0412 29.2341L55.6895 20.3664C56.4335 20.164 57.1955 20.035 57.9646 19.9812C58.7613 19.9239 59.5618 19.9489 60.3533 20.056Z" fill="white"/>
<path d="M68.9641 25.599L52.1468 42.8242C51.7627 42.5686 51.3943 42.2903 51.0435 41.9906L68.1533 24.468C68.4453 24.829 68.716 25.2066 68.9641 25.599Z" fill="white"/>
<path d="M63.7023 21.0099L47.6764 37.4226C47.475 36.9558 47.3024 36.4772 47.1597 35.9893L62.3032 20.4736C62.7803 20.6232 63.2475 20.8023 63.7023 21.0099Z" fill="white"/>
<path d="M70.7825 34.4716C70.7744 34.5284 70.763 34.5869 70.7533 34.6438C70.737 34.7446 70.7175 34.8453 70.6964 34.9428L61.2713 44.6019C61.1202 44.6344 60.9658 44.6637 60.8098 44.6897L70.7825 34.4716Z" fill="white"/>
<path d="M67.1962 23.4116L50.0166 41.0138C49.9548 40.9488 49.8947 40.8822 49.8362 40.8155L67.0045 23.2247L67.1962 23.4116Z" fill="white"/>
</g>
</svg>
