<svg width="23" height="23" viewBox="0 0 23 23" fill="none" xmlns="http://www.w3.org/2000/svg">
<g clip-path="url(#clip0_26_9661)">
<path d="M22.7898 21.7656L15.806 14.739C17.1077 13.1801 17.8922 11.1744 17.8922 8.98437C17.8922 4.02248 13.8697 0 8.90784 0C3.94595 0 -0.0765381 4.02248 -0.0765381 8.98437C-0.0765381 13.9463 3.94595 17.9687 8.90784 17.9687C11.1622 17.9687 13.2214 17.1364 14.7991 15.7643L21.7731 22.7822C22.0538 23.0629 22.5091 23.0629 22.7898 22.7822C23.0701 22.5015 23.0701 22.0466 22.7898 21.7656H22.7898ZM8.90784 16.5431C4.73334 16.5431 1.3491 13.1589 1.3491 8.98437C1.3491 4.80987 4.73334 1.42564 8.90784 1.42564C13.0823 1.42564 16.4666 4.80987 16.4666 8.98437C16.4666 13.1589 13.0823 16.5431 8.90784 16.5431Z" fill="#4E2B73"/>
</g>
<defs>
<clipPath id="clip0_26_9661">
<rect width="23" height="23" fill="white"/>
</clipPath>
</defs>
</svg>
