<svg width="149" height="140" viewBox="0 0 149 140" fill="none" xmlns="http://www.w3.org/2000/svg">
<path d="M34.8013 116.667C31.9503 116.667 29.5703 115.768 27.6613 113.972C25.7482 112.171 24.7917 109.929 24.7917 107.246V32.7542C24.7917 30.0708 25.7482 27.8308 27.6613 26.0342C29.5703 24.2336 31.9503 23.3333 34.8013 23.3333H113.949C116.8 23.3333 119.18 24.2336 121.089 26.0342C123.002 27.8308 123.958 30.0708 123.958 32.7542V107.246C123.958 109.929 123.004 112.169 121.095 113.966C119.182 115.766 116.8 116.667 113.949 116.667H34.8013ZM34.8013 110.833H113.949C114.899 110.833 115.773 110.46 116.57 109.713C117.364 108.963 117.76 108.14 117.76 107.246V32.7542C117.76 31.8597 117.364 31.0372 116.57 30.2867C115.773 29.54 114.899 29.1667 113.949 29.1667H34.8013C33.851 29.1667 32.9771 29.54 32.1796 30.2867C31.3863 31.0372 30.9896 31.8597 30.9896 32.7542V107.246C30.9896 108.14 31.3863 108.963 32.1796 109.713C32.9771 110.46 33.851 110.833 34.8013 110.833ZM55.0685 96.25H93.6815V90.4167H61.2664V72.9167H87.4836V67.0833H61.2664V49.5833H93.6815V43.75H55.0685V96.25Z" fill="#401B71"/>
</svg>
