<svg width="477" height="96" viewBox="0 0 477 96" fill="none" xmlns="http://www.w3.org/2000/svg">
<path d="M117.192 62.324L110.892 54.512L104.664 62.252L102.36 60.236L109.02 52.496L102.612 45.08L105.132 42.884L110.928 50.372L116.616 43.028L119.028 45.08L112.8 52.352L119.64 60.236L117.192 62.324ZM140.124 69.92V48.068C140.124 47.252 139.92 46.676 139.512 46.34C139.128 45.98 138.624 45.8 138 45.8L138.684 43.28C140.892 43.28 142.272 44.156 142.824 45.908C143.064 45.548 143.448 45.128 143.976 44.648C144.528 44.168 145.2 43.748 145.992 43.388C146.808 43.028 147.732 42.848 148.764 42.848C150.204 42.848 151.548 43.232 152.796 44C154.068 44.744 155.088 45.836 155.856 47.276C156.624 48.692 157.008 50.42 157.008 52.46C157.008 54.452 156.624 56.204 155.856 57.716C155.088 59.204 154.08 60.368 152.832 61.208C151.608 62.024 150.276 62.432 148.836 62.432C147.732 62.432 146.7 62.216 145.74 61.784C144.78 61.328 143.988 60.812 143.364 60.236V69.92H140.124ZM148.188 59.552C149.82 59.552 151.14 58.916 152.148 57.644C153.18 56.348 153.696 54.656 153.696 52.568C153.696 51.128 153.432 49.892 152.904 48.86C152.4 47.828 151.716 47.036 150.852 46.484C150.012 45.932 149.076 45.656 148.044 45.656C147.012 45.656 146.076 45.92 145.236 46.448C144.42 46.952 143.796 47.504 143.364 48.104V57.32C143.988 57.968 144.708 58.508 145.524 58.94C146.34 59.348 147.228 59.552 148.188 59.552ZM185.566 62.432C182.878 62.432 180.742 61.58 179.158 59.876C177.598 58.148 176.818 55.736 176.818 52.64C176.818 50.768 177.166 49.1 177.862 47.636C178.582 46.148 179.578 44.984 180.85 44.144C182.122 43.28 183.598 42.848 185.278 42.848C187.078 42.848 188.566 43.244 189.742 44.036C190.942 44.804 191.842 45.848 192.442 47.168C193.042 48.488 193.342 49.94 193.342 51.524C193.342 52.364 193.306 53.18 193.234 53.972H180.13C180.346 55.724 180.958 57.092 181.966 58.076C182.974 59.06 184.306 59.552 185.962 59.552C187.042 59.552 188.014 59.444 188.878 59.228C189.742 58.988 190.57 58.688 191.362 58.328L192.118 61.1C191.254 61.484 190.282 61.796 189.202 62.036C188.122 62.3 186.91 62.432 185.566 62.432ZM180.094 51.344H190.354C190.354 49.52 189.898 48.116 188.986 47.132C188.074 46.148 186.814 45.656 185.206 45.656C183.814 45.656 182.662 46.148 181.75 47.132C180.838 48.092 180.286 49.496 180.094 51.344ZM214.22 62V43.28H217.352V47.348C217.664 46.556 218.084 45.824 218.612 45.152C219.14 44.456 219.8 43.904 220.592 43.496C221.384 43.064 222.308 42.848 223.364 42.848C223.724 42.848 224.084 42.872 224.444 42.92C224.804 42.944 225.104 42.992 225.344 43.064L224.372 46.412C223.916 46.22 223.376 46.124 222.752 46.124C221.864 46.124 221.012 46.376 220.196 46.88C219.404 47.384 218.744 48.164 218.216 49.22C217.712 50.276 217.46 51.62 217.46 53.252V62H214.22ZM245.159 62V43.28H248.399V62H245.159ZM246.779 40.076C246.155 40.076 245.615 39.848 245.159 39.392C244.727 38.936 244.511 38.408 244.511 37.808C244.511 37.112 244.715 36.56 245.123 36.152C245.531 35.744 246.083 35.54 246.779 35.54C247.403 35.54 247.931 35.768 248.363 36.224C248.819 36.656 249.047 37.184 249.047 37.808C249.047 38.48 248.843 39.032 248.435 39.464C248.027 39.872 247.475 40.076 246.779 40.076ZM278.207 62.432C275.519 62.432 273.383 61.58 271.799 59.876C270.239 58.148 269.459 55.736 269.459 52.64C269.459 50.768 269.807 49.1 270.503 47.636C271.223 46.148 272.219 44.984 273.491 44.144C274.763 43.28 276.239 42.848 277.919 42.848C279.719 42.848 281.207 43.244 282.383 44.036C283.583 44.804 284.483 45.848 285.083 47.168C285.683 48.488 285.983 49.94 285.983 51.524C285.983 52.364 285.947 53.18 285.875 53.972H272.771C272.987 55.724 273.599 57.092 274.607 58.076C275.615 59.06 276.947 59.552 278.603 59.552C279.683 59.552 280.655 59.444 281.519 59.228C282.383 58.988 283.211 58.688 284.003 58.328L284.759 61.1C283.895 61.484 282.923 61.796 281.843 62.036C280.763 62.3 279.551 62.432 278.207 62.432ZM272.735 51.344H282.995C282.995 49.52 282.539 48.116 281.627 47.132C280.715 46.148 279.455 45.656 277.847 45.656C276.455 45.656 275.303 46.148 274.391 47.132C273.479 48.092 272.927 49.496 272.735 51.344ZM306.861 62V43.28H309.993V46.412C310.665 45.404 311.517 44.564 312.549 43.892C313.605 43.196 314.853 42.848 316.293 42.848C318.405 42.848 319.977 43.484 321.009 44.756C322.065 46.028 322.593 47.708 322.593 49.796V62H319.353V50.156C319.353 48.812 319.029 47.732 318.381 46.916C317.757 46.1 316.881 45.692 315.753 45.692C314.649 45.692 313.605 46.088 312.621 46.88C311.637 47.648 310.797 48.56 310.101 49.616V62H306.861ZM352.286 62.432C350.51 62.432 348.95 62.024 347.606 61.208C346.286 60.368 345.266 59.216 344.546 57.752C343.826 56.264 343.466 54.56 343.466 52.64C343.466 50.84 343.826 49.196 344.546 47.708C345.29 46.22 346.346 45.044 347.714 44.18C349.082 43.292 350.69 42.848 352.538 42.848C353.594 42.848 354.518 42.944 355.31 43.136C356.126 43.328 356.906 43.604 357.65 43.964L356.678 46.7C356.006 46.364 355.358 46.124 354.734 45.98C354.134 45.812 353.462 45.728 352.718 45.728C351.038 45.728 349.622 46.34 348.47 47.564C347.342 48.764 346.778 50.432 346.778 52.568C346.778 53.864 347.018 55.04 347.498 56.096C347.978 57.152 348.638 57.992 349.478 58.616C350.342 59.24 351.35 59.552 352.502 59.552C353.414 59.552 354.194 59.456 354.842 59.264C355.49 59.048 356.186 58.748 356.93 58.364L357.938 61.1C357.194 61.508 356.354 61.832 355.418 62.072C354.506 62.312 353.462 62.432 352.286 62.432ZM385.403 62.432C382.715 62.432 380.579 61.58 378.995 59.876C377.435 58.148 376.655 55.736 376.655 52.64C376.655 50.768 377.003 49.1 377.699 47.636C378.419 46.148 379.415 44.984 380.687 44.144C381.959 43.28 383.435 42.848 385.115 42.848C386.915 42.848 388.403 43.244 389.579 44.036C390.779 44.804 391.679 45.848 392.279 47.168C392.879 48.488 393.179 49.94 393.179 51.524C393.179 52.364 393.143 53.18 393.071 53.972H379.967C380.183 55.724 380.795 57.092 381.803 58.076C382.811 59.06 384.143 59.552 385.799 59.552C386.879 59.552 387.851 59.444 388.715 59.228C389.579 58.988 390.407 58.688 391.199 58.328L391.955 61.1C391.091 61.484 390.119 61.796 389.039 62.036C387.959 62.3 386.747 62.432 385.403 62.432ZM379.931 51.344H390.191C390.191 49.52 389.735 48.116 388.823 47.132C387.911 46.148 386.651 45.656 385.043 45.656C383.651 45.656 382.499 46.148 381.587 47.132C380.675 48.092 380.123 49.496 379.931 51.344Z" fill="white"/>
<path d="M23.8637 80C21.9087 80 20.2767 79.384 18.9677 78.152C17.6559 76.9173 17 75.38 17 73.54V22.46C17 20.62 17.6559 19.084 18.9677 17.852C20.2767 16.6173 21.9087 16 23.8637 16H78.1362C80.0913 16 81.7233 16.6173 83.0322 17.852C84.3441 19.084 85 20.62 85 22.46V73.54C85 75.38 84.3455 76.916 83.0365 78.148C81.7247 79.3827 80.0913 80 78.1362 80H23.8637ZM23.8637 76H78.1362C78.7879 76 79.3872 75.744 79.934 75.232C80.478 74.7173 80.75 74.1533 80.75 73.54V22.46C80.75 21.8467 80.478 21.2827 79.934 20.768C79.3872 20.256 78.7879 20 78.1362 20H23.8637C23.2121 20 22.6128 20.256 22.066 20.768C21.522 21.2827 21.25 21.8467 21.25 22.46V73.54C21.25 74.1533 21.522 74.7173 22.066 75.232C22.6128 75.744 23.2121 76 23.8637 76ZM37.7613 66H64.2388V62H42.0113V50H59.9888V46H42.0113V34H64.2388V30H37.7613V66Z" fill="#401B71"/>
</svg>
