<svg width="283" height="57" viewBox="0 0 283 57" fill="none" xmlns="http://www.w3.org/2000/svg">
<path d="M71.128 40.216L66.928 35.008L62.776 40.168L61.24 38.824L65.68 33.664L61.408 28.72L63.088 27.256L66.952 32.248L70.744 27.352L72.352 28.72L68.2 33.568L72.76 38.824L71.128 40.216ZM86.416 45.28V30.712C86.416 30.168 86.28 29.784 86.008 29.56C85.752 29.32 85.416 29.2 85 29.2L85.456 27.52C86.928 27.52 87.848 28.104 88.216 29.272C88.376 29.032 88.632 28.752 88.984 28.432C89.352 28.112 89.8 27.832 90.328 27.592C90.872 27.352 91.488 27.232 92.176 27.232C93.136 27.232 94.032 27.488 94.864 28C95.712 28.496 96.392 29.224 96.904 30.184C97.416 31.128 97.672 32.28 97.672 33.64C97.672 34.968 97.416 36.136 96.904 37.144C96.392 38.136 95.72 38.912 94.888 39.472C94.072 40.016 93.184 40.288 92.224 40.288C91.488 40.288 90.8 40.144 90.16 39.856C89.52 39.552 88.992 39.208 88.576 38.824V45.28H86.416ZM91.792 38.368C92.88 38.368 93.76 37.944 94.432 37.096C95.12 36.232 95.464 35.104 95.464 33.712C95.464 32.752 95.288 31.928 94.936 31.24C94.6 30.552 94.144 30.024 93.568 29.656C93.008 29.288 92.384 29.104 91.696 29.104C91.008 29.104 90.384 29.28 89.824 29.632C89.28 29.968 88.864 30.336 88.576 30.736V36.88C88.992 37.312 89.472 37.672 90.016 37.96C90.56 38.232 91.152 38.368 91.792 38.368ZM116.711 40.288C114.919 40.288 113.495 39.72 112.439 38.584C111.399 37.432 110.879 35.824 110.879 33.76C110.879 32.512 111.111 31.4 111.575 30.424C112.055 29.432 112.719 28.656 113.567 28.096C114.415 27.52 115.399 27.232 116.519 27.232C117.719 27.232 118.711 27.496 119.495 28.024C120.295 28.536 120.895 29.232 121.295 30.112C121.695 30.992 121.895 31.96 121.895 33.016C121.895 33.576 121.871 34.12 121.823 34.648H113.087C113.231 35.816 113.639 36.728 114.311 37.384C114.983 38.04 115.871 38.368 116.975 38.368C117.695 38.368 118.343 38.296 118.919 38.152C119.495 37.992 120.047 37.792 120.575 37.552L121.079 39.4C120.503 39.656 119.855 39.864 119.135 40.024C118.415 40.2 117.607 40.288 116.711 40.288ZM113.063 32.896H119.903C119.903 31.68 119.599 30.744 118.991 30.088C118.383 29.432 117.543 29.104 116.471 29.104C115.543 29.104 114.775 29.432 114.167 30.088C113.559 30.728 113.191 31.664 113.063 32.896ZM135.813 40V27.52H137.901V30.232C138.109 29.704 138.389 29.216 138.741 28.768C139.093 28.304 139.533 27.936 140.061 27.664C140.589 27.376 141.205 27.232 141.909 27.232C142.149 27.232 142.389 27.248 142.629 27.28C142.869 27.296 143.069 27.328 143.229 27.376L142.581 29.608C142.277 29.48 141.917 29.416 141.501 29.416C140.909 29.416 140.341 29.584 139.797 29.92C139.269 30.256 138.829 30.776 138.477 31.48C138.141 32.184 137.973 33.08 137.973 34.168V40H135.813ZM156.439 40V27.52H158.599V40H156.439ZM157.519 25.384C157.103 25.384 156.743 25.232 156.439 24.928C156.151 24.624 156.007 24.272 156.007 23.872C156.007 23.408 156.143 23.04 156.415 22.768C156.687 22.496 157.055 22.36 157.519 22.36C157.935 22.36 158.287 22.512 158.575 22.816C158.879 23.104 159.031 23.456 159.031 23.872C159.031 24.32 158.895 24.688 158.623 24.976C158.351 25.248 157.983 25.384 157.519 25.384ZM178.471 40.288C176.679 40.288 175.255 39.72 174.199 38.584C173.159 37.432 172.639 35.824 172.639 33.76C172.639 32.512 172.871 31.4 173.335 30.424C173.815 29.432 174.479 28.656 175.327 28.096C176.175 27.52 177.159 27.232 178.279 27.232C179.479 27.232 180.471 27.496 181.255 28.024C182.055 28.536 182.655 29.232 183.055 30.112C183.455 30.992 183.655 31.96 183.655 33.016C183.655 33.576 183.631 34.12 183.583 34.648H174.847C174.991 35.816 175.399 36.728 176.071 37.384C176.743 38.04 177.631 38.368 178.735 38.368C179.455 38.368 180.103 38.296 180.679 38.152C181.255 37.992 181.807 37.792 182.335 37.552L182.839 39.4C182.263 39.656 181.615 39.864 180.895 40.024C180.175 40.2 179.367 40.288 178.471 40.288ZM174.823 32.896H181.663C181.663 31.68 181.359 30.744 180.751 30.088C180.143 29.432 179.303 29.104 178.231 29.104C177.303 29.104 176.535 29.432 175.927 30.088C175.319 30.728 174.951 31.664 174.823 32.896ZM197.574 40V27.52H199.662V29.608C200.11 28.936 200.678 28.376 201.366 27.928C202.07 27.464 202.902 27.232 203.862 27.232C205.27 27.232 206.318 27.656 207.006 28.504C207.71 29.352 208.062 30.472 208.062 31.864V40H205.902V32.104C205.902 31.208 205.686 30.488 205.254 29.944C204.838 29.4 204.254 29.128 203.502 29.128C202.766 29.128 202.07 29.392 201.414 29.92C200.758 30.432 200.198 31.04 199.734 31.744V40H197.574ZM227.857 40.288C226.673 40.288 225.633 40.016 224.737 39.472C223.857 38.912 223.177 38.144 222.697 37.168C222.217 36.176 221.977 35.04 221.977 33.76C221.977 32.56 222.217 31.464 222.697 30.472C223.193 29.48 223.897 28.696 224.809 28.12C225.721 27.528 226.793 27.232 228.025 27.232C228.729 27.232 229.345 27.296 229.873 27.424C230.417 27.552 230.937 27.736 231.433 27.976L230.785 29.8C230.337 29.576 229.905 29.416 229.489 29.32C229.089 29.208 228.641 29.152 228.145 29.152C227.025 29.152 226.081 29.56 225.313 30.376C224.561 31.176 224.185 32.288 224.185 33.712C224.185 34.576 224.345 35.36 224.665 36.064C224.985 36.768 225.425 37.328 225.985 37.744C226.561 38.16 227.233 38.368 228.001 38.368C228.609 38.368 229.129 38.304 229.561 38.176C229.993 38.032 230.457 37.832 230.953 37.576L231.625 39.4C231.129 39.672 230.569 39.888 229.945 40.048C229.337 40.208 228.641 40.288 227.857 40.288ZM249.935 40.288C248.143 40.288 246.719 39.72 245.663 38.584C244.623 37.432 244.103 35.824 244.103 33.76C244.103 32.512 244.335 31.4 244.799 30.424C245.279 29.432 245.943 28.656 246.791 28.096C247.639 27.52 248.623 27.232 249.743 27.232C250.943 27.232 251.935 27.496 252.719 28.024C253.519 28.536 254.119 29.232 254.519 30.112C254.919 30.992 255.119 31.96 255.119 33.016C255.119 33.576 255.095 34.12 255.047 34.648H246.311C246.455 35.816 246.863 36.728 247.535 37.384C248.207 38.04 249.095 38.368 250.199 38.368C250.919 38.368 251.567 38.296 252.143 38.152C252.719 37.992 253.271 37.792 253.799 37.552L254.303 39.4C253.727 39.656 253.079 39.864 252.359 40.024C251.639 40.2 250.831 40.288 249.935 40.288ZM246.287 32.896H253.127C253.127 31.68 252.823 30.744 252.215 30.088C251.607 29.432 250.767 29.104 249.695 29.104C248.767 29.104 247.999 29.432 247.391 30.088C246.783 30.728 246.415 31.664 246.287 32.896Z" fill="white"/>
<path d="M14.1581 47.4633C12.9983 47.4633 12.03 47.0979 11.2534 46.3669C10.4751 45.6344 10.0859 44.7223 10.0859 43.6307V13.3253C10.0859 12.2337 10.4751 11.3224 11.2534 10.5915C12.03 9.85893 12.9983 9.49268 14.1581 9.49268H46.3575C47.5174 9.49268 48.4857 9.85893 49.2623 10.5915C50.0406 11.3224 50.4298 12.2337 50.4298 13.3253V43.6307C50.4298 44.7223 50.0414 45.6336 49.2648 46.3646C48.4865 47.0971 47.5174 47.4633 46.3575 47.4633H14.1581ZM14.1581 45.0902H46.3575C46.7442 45.0902 47.0997 44.9383 47.4241 44.6345C47.7469 44.3292 47.9083 43.9945 47.9083 43.6307V13.3253C47.9083 12.9615 47.7469 12.6268 47.4241 12.3215C47.0997 12.0177 46.7442 11.8658 46.3575 11.8658H14.1581C13.7715 11.8658 13.416 12.0177 13.0916 12.3215C12.7688 12.6268 12.6074 12.9615 12.6074 13.3253V43.6307C12.6074 43.9945 12.7688 44.3292 13.0916 44.6345C13.416 44.9383 13.7715 45.0902 14.1581 45.0902ZM22.4034 39.1572H38.1123V36.7841H24.9249V29.6646H35.5908V27.2914H24.9249V20.1719H38.1123V17.7988H22.4034V39.1572Z" fill="#401B71"/>
</svg>
