<svg width="259" height="69" viewBox="0 0 259 69" fill="none" xmlns="http://www.w3.org/2000/svg">
<path opacity="0.8" d="M210.693 24.6046C210.693 24.6046 208.647 0.886432 166.733 0.022206C124.818 -0.84202 135.856 23.7724 124.818 29.694C113.78 35.6155 110.499 26.3011 99.2676 32.2547C88.0363 38.2082 93.1309 50.0513 83.8294 51.7478C74.5279 53.4442 62.3703 44.1298 51.139 50.0513C39.9077 55.9729 39.8691 61.0942 34.7745 61.0942C29.6799 61.0942 19.3364 57.7013 13.3155 61.0942C7.29457 64.4871 0 68.7122 0 68.7122H258.59C258.59 68.7122 261.677 61.0942 250.408 55.9088C239.138 50.7235 234.043 55.0446 229.991 50.8195C225.938 46.5944 241.376 35.6475 210.693 24.6046Z" fill="#EAE8ED"/>
</svg>
