<svg width="614" height="162" viewBox="0 0 614 162" fill="none" xmlns="http://www.w3.org/2000/svg">
<path opacity="0.8" d="M499.152 58.0825C499.152 58.0825 494.308 2.1528 394.925 0.0554386C295.542 -2.04193 322.233 55.9852 295.575 69.9676C268.917 83.9501 261.702 61.9417 234.977 75.9521C208.251 89.9625 220.445 117.899 198.631 121.982C176.817 126.065 147.822 103.973 121.096 117.983C94.3701 131.994 94.4378 143.991 82.3112 143.991C70.1847 143.991 45.9656 135.993 31.5018 143.991C17.0381 151.989 0 162 0 162H613.101C613.101 162 620.349 143.991 593.691 131.994C567.033 119.997 554.907 129.98 545.219 119.969C535.531 109.957 571.877 84.2297 499.152 58.0825Z" fill="#EAE8ED"/>
</svg>
